@startuml

title 基于GitHub的实验管理平台--类图

class users {

    <b>user_id</b> （用户ID）

    name （用户真实姓名）

    github_username （用户GitHub账号）

    update_date （用户GitHub账号修改日期）

    password （用户密码）

    disable （用户是否禁用）

}

class teachers{

    <b>teacher_id</b> （老师工号）

    department （老师所属部门）

}

class students{

    <b>student_id</b> （学号）

    class （班级）

    result_sum（成绩汇总）

    web_sum （网站正确与否汇总）

}

users <|- students

users <|-- teachers

class grades {

    <b>student_id</b> （学号）

    <b>test_id</b> （实验编号）

    result （分数）

    memo （评价）

    update_date （评改日期）

}



class tests {

    <b>test_id</b> （实验编号）

    title (实验名称)

}



students "1" -- "n"  grades

tests "1" -- "n"  grades





@enduml